mtllib ui_kit.mtl
o cta
usemtl cta
v 0.0000 0 0
v 5.1200 0 0
v 5.1200 1.2800 0
v 0.0000 1.2800 0
vt 0 0.750000
vt 1.000000 0.750000
vt 1.000000 1
vt 0 1
vn 0 0 1
f 1/1/1 2/2/1 3/3/1 4/4/1
o button
usemtl button
v 5.6200 0 0
v 9.4600 0 0
v 9.4600 0.9600 0
v 5.6200 0.9600 0
vt 0 0.750000
vt 1.000000 0.750000
vt 1.000000 1
vt 0 1
vn 0 0 1
f 5/5/2 6/6/2 7/7/2 8/8/2
o tile
usemtl tile
v 9.9600 0 0
v 11.5600 0 0
v 11.5600 1.6000 0
v 9.9600 1.6000 0
vt 0 0.000000
vt 1.000000 0.000000
vt 1.000000 1
vt 0 1
vn 0 0 1
f 9/9/3 10/10/3 11/11/3 12/12/3
o panel
usemtl panel
v 12.0600 0 0
v 17.1800 0 0
v 17.1800 5.1200 0
v 12.0600 5.1200 0
vt 0 0.000000
vt 1.000000 0.000000
vt 1.000000 1
vt 0 1
vn 0 0 1
f 13/13/4 14/14/4 15/15/4 16/16/4
o plate
usemtl plate
v 17.6800 0 0
v 20.2400 0 0
v 20.2400 1.2800 0
v 17.6800 1.2800 0
vt 0 0.500000
vt 1.000000 0.500000
vt 1.000000 1
vt 0 1
vn 0 0 1
f 17/17/5 18/18/5 19/19/5 20/20/5
