<svg xmlns="http://www.w3.org/2000/svg" viewBox="0 0 128 128" width="128" height="128"><g transform="translate(0 6)"><circle cx="64" cy="61" r="48" fill="#0b0c10" stroke="#0b0c10" stroke-width="11" stroke-linejoin="round"/><circle cx="64" cy="61" r="33" fill="#0b0c10" stroke="#0b0c10" stroke-width="11" stroke-linejoin="round"/></g><circle cx="64" cy="61" r="48" fill="#0b0c10" stroke="#0b0c10" stroke-width="11" stroke-linejoin="round"/><circle cx="64" cy="61" r="33" fill="#0b0c10" stroke="#0b0c10" stroke-width="11" stroke-linejoin="round"/><clipPath id="c0"><circle cx="64" cy="61" r="48"/></clipPath><circle cx="64" cy="61" r="48" fill="#e0900f"/><g clip-path="url(#c0)"><circle cx="64" cy="61" r="48" fill="#ffe079" transform="translate(-4 -5)"/><clipPath id="c0b"><circle cx="64" cy="61" r="48" transform="translate(-4 -5)"/></clipPath><g clip-path="url(#c0b)"><circle cx="64" cy="61" r="48" fill="#ffd23f" transform="translate(-4 0)"/></g></g><clipPath id="c1"><circle cx="64" cy="61" r="33"/></clipPath><circle cx="64" cy="61" r="33" fill="#ffe27a"/><g clip-path="url(#c1)"><circle cx="64" cy="61" r="33" fill="#f6b41f" transform="translate(4 5)"/></g><path d="M76 51C72 44 51 44 51 54C51 64 77 60 77 70C77 81 55 81 51 73M64 38V86" fill="none" stroke="#b66a05" stroke-width="9" stroke-linecap="round" stroke-linejoin="round"/><ellipse cx="38" cy="34" rx="13" ry="6" transform="rotate(-35 38 34)" fill="#fff" opacity="0.95"/><ellipse cx="97" cy="40" rx="3" ry="3" transform="rotate(0 97 40)" fill="#fff" opacity="0.95"/></svg>