<svg xmlns="http://www.w3.org/2000/svg" viewBox="0 0 128 128" width="128" height="128"><g transform="translate(0 6)"><rect x="18" y="54" width="92" height="62" rx="14" fill="#0b0c10" stroke="#0b0c10" stroke-width="11" stroke-linejoin="round"/><path d="M38 58V42a26 26 0 0 1 52 0v16" fill="none" stroke="#0b0c10" stroke-width="25" stroke-linecap="round" stroke-linejoin="round"/></g><rect x="18" y="54" width="92" height="62" rx="14" fill="#0b0c10" stroke="#0b0c10" stroke-width="11" stroke-linejoin="round"/><path d="M38 58V42a26 26 0 0 1 52 0v16" fill="none" stroke="#0b0c10" stroke-width="25" stroke-linecap="round" stroke-linejoin="round"/><path d="M38 58V42a26 26 0 0 1 52 0v16" fill="none" stroke="#b9bdc8" stroke-width="14" stroke-linecap="round" stroke-linejoin="round"/><clipPath id="c0"><rect x="18" y="54" width="92" height="62" rx="14"/></clipPath><rect x="18" y="54" width="92" height="62" rx="14" fill="#d08a0c"/><g clip-path="url(#c0)"><rect x="18" y="54" width="92" height="62" rx="14" fill="#ffd775" transform="translate(-4 -5)"/><clipPath id="c0b"><rect x="18" y="54" width="92" height="62" rx="14" transform="translate(-4 -5)"/></clipPath><g clip-path="url(#c0b)"><rect x="18" y="54" width="92" height="62" rx="14" fill="#ffc63a" transform="translate(-4 0)"/></g></g><path d="M64 74a9 9 0 0 1 5 16.5V100h-10V90.5A9 9 0 0 1 64 74z" fill="#0b0c10"/><ellipse cx="34" cy="66" rx="10" ry="4" transform="rotate(-15 34 66)" fill="#fff" opacity="0.95"/></svg>