<svg xmlns="http://www.w3.org/2000/svg" viewBox="0 0 128 128" width="128" height="128"><g transform="translate(0 6)"><rect x="16" y="84" width="96" height="26" rx="13" fill="#0b0c10" stroke="#0b0c10" stroke-width="11" stroke-linejoin="round"/><rect x="16" y="54" width="96" height="26" rx="13" fill="#0b0c10" stroke="#0b0c10" stroke-width="11" stroke-linejoin="round"/><rect x="16" y="24" width="96" height="26" rx="13" fill="#0b0c10" stroke="#0b0c10" stroke-width="11" stroke-linejoin="round"/></g><rect x="16" y="84" width="96" height="26" rx="13" fill="#0b0c10" stroke="#0b0c10" stroke-width="11" stroke-linejoin="round"/><rect x="16" y="54" width="96" height="26" rx="13" fill="#0b0c10" stroke="#0b0c10" stroke-width="11" stroke-linejoin="round"/><rect x="16" y="24" width="96" height="26" rx="13" fill="#0b0c10" stroke="#0b0c10" stroke-width="11" stroke-linejoin="round"/><clipPath id="c0"><rect x="16" y="84" width="96" height="26" rx="13"/></clipPath><rect x="16" y="84" width="96" height="26" rx="13" fill="#b81d2b"/><g clip-path="url(#c0)"><rect x="16" y="84" width="96" height="26" rx="13" fill="#ff7f7f" transform="translate(-4 -5)"/><clipPath id="c0b"><rect x="16" y="84" width="96" height="26" rx="13" transform="translate(-4 -5)"/></clipPath><g clip-path="url(#c0b)"><rect x="16" y="84" width="96" height="26" rx="13" fill="#ff4848" transform="translate(-4 0)"/></g></g><clipPath id="c1"><rect x="16" y="54" width="96" height="26" rx="13"/></clipPath><rect x="16" y="54" width="96" height="26" rx="13" fill="#b81d2b"/><g clip-path="url(#c1)"><rect x="16" y="54" width="96" height="26" rx="13" fill="#ff7f7f" transform="translate(-4 -5)"/><clipPath id="c1b"><rect x="16" y="54" width="96" height="26" rx="13" transform="translate(-4 -5)"/></clipPath><g clip-path="url(#c1b)"><rect x="16" y="54" width="96" height="26" rx="13" fill="#ff4848" transform="translate(-4 0)"/></g></g><clipPath id="c2"><rect x="16" y="24" width="96" height="26" rx="13"/></clipPath><rect x="16" y="24" width="96" height="26" rx="13" fill="#b81d2b"/><g clip-path="url(#c2)"><rect x="16" y="24" width="96" height="26" rx="13" fill="#ff7f7f" transform="translate(-4 -5)"/><clipPath id="c2b"><rect x="16" y="24" width="96" height="26" rx="13" transform="translate(-4 -5)"/></clipPath><g clip-path="url(#c2b)"><rect x="16" y="24" width="96" height="26" rx="13" fill="#ff4848" transform="translate(-4 0)"/></g></g><ellipse cx="36" cy="31" rx="12" ry="3.5" transform="rotate(0 36 31)" fill="#fff" opacity="0.95"/><ellipse cx="36" cy="61" rx="12" ry="3.5" transform="rotate(0 36 61)" fill="#fff" opacity="0.7"/><ellipse cx="36" cy="91" rx="12" ry="3.5" transform="rotate(0 36 91)" fill="#fff" opacity="0.6"/></svg>