<svg xmlns="http://www.w3.org/2000/svg" viewBox="0 0 128 128" width="128" height="128"><g transform="translate(0 6)"><rect x="54" y="8" width="20" height="16" rx="5" fill="#0b0c10" stroke="#0b0c10" stroke-width="11" stroke-linejoin="round"/><rect x="90" y="22" width="16" height="13" rx="4" fill="#0b0c10" stroke="#0b0c10" stroke-width="11" stroke-linejoin="round"/><circle cx="64" cy="70" r="47" fill="#0b0c10" stroke="#0b0c10" stroke-width="11" stroke-linejoin="round"/><circle cx="64" cy="70" r="35" fill="#0b0c10" stroke="#0b0c10" stroke-width="11" stroke-linejoin="round"/></g><rect x="54" y="8" width="20" height="16" rx="5" fill="#0b0c10" stroke="#0b0c10" stroke-width="11" stroke-linejoin="round"/><rect x="90" y="22" width="16" height="13" rx="4" fill="#0b0c10" stroke="#0b0c10" stroke-width="11" stroke-linejoin="round"/><circle cx="64" cy="70" r="47" fill="#0b0c10" stroke="#0b0c10" stroke-width="11" stroke-linejoin="round"/><circle cx="64" cy="70" r="35" fill="#0b0c10" stroke="#0b0c10" stroke-width="11" stroke-linejoin="round"/><clipPath id="c0"><rect x="54" y="8" width="20" height="16" rx="5"/></clipPath><rect x="54" y="8" width="20" height="16" rx="5" fill="#915cc1"/><g clip-path="url(#c0)"><rect x="54" y="8" width="20" height="16" rx="5" fill="#d6a4ff" transform="translate(-4 -5)"/><clipPath id="c0b"><rect x="54" y="8" width="20" height="16" rx="5" transform="translate(-4 -5)"/></clipPath><g clip-path="url(#c0b)"><rect x="54" y="8" width="20" height="16" rx="5" fill="#c47dff" transform="translate(-4 0)"/></g></g><clipPath id="c1"><rect x="90" y="22" width="16" height="13" rx="4"/></clipPath><rect x="90" y="22" width="16" height="13" rx="4" fill="#915cc1"/><g clip-path="url(#c1)"><rect x="90" y="22" width="16" height="13" rx="4" fill="#c47dff" transform="translate(-4 -5)"/></g><clipPath id="c2"><circle cx="64" cy="70" r="47"/></clipPath><circle cx="64" cy="70" r="47" fill="#c02a8a"/><g clip-path="url(#c2)"><circle cx="64" cy="70" r="47" fill="#ff8fd2" transform="translate(-4 -5)"/><clipPath id="c2b"><circle cx="64" cy="70" r="47" transform="translate(-4 -5)"/></clipPath><g clip-path="url(#c2b)"><circle cx="64" cy="70" r="47" fill="#ff5fbf" transform="translate(-4 0)"/></g></g><circle cx="64" cy="70" r="35" fill="none" stroke="#0b0c10" stroke-width="6" stroke-linejoin="round"/><clipPath id="c3"><circle cx="64" cy="70" r="35"/></clipPath><circle cx="64" cy="70" r="35" fill="#d8dbe6"/><g clip-path="url(#c3)"><circle cx="64" cy="70" r="35" fill="#ffffff" transform="translate(4 5)"/></g><path d="M64 70V48" fill="none" stroke="#0b0c10" stroke-width="8" stroke-linecap="round" stroke-linejoin="round"/><path d="M64 70L78 80" fill="none" stroke="#0b0c10" stroke-width="8" stroke-linecap="round" stroke-linejoin="round"/><circle cx="64" cy="70" r="6" fill="#ff5fbf" stroke="#0b0c10" stroke-width="3"/><ellipse cx="34" cy="44" rx="9" ry="4" transform="rotate(-50 34 44)" fill="#fff" opacity="0.95"/></svg>